<svg width="173" height="31" viewBox="0 0 173 31" fill="none" xmlns="http://www.w3.org/2000/svg">
<path d="M5.5375 30.2805C5.03942 30.2805 4.62923 29.9582 4.30694 29.3136C4.62923 28.6983 4.79038 26.2079 4.79038 21.8424C4.79038 20.8169 4.71713 19.7035 4.57064 18.5023L4.43879 17.2278C4.35089 16.4367 4.30694 15.8361 4.30694 15.4259V14.2832C4.01396 13.5508 3.47193 12.1884 2.68085 10.196C1.91908 8.2037 1.3038 6.53366 0.83502 5.18591C0.27834 3.63307 0 2.57831 0 2.02163V1.80189L1.01081 1.05476C1.5089 1.11336 2.03628 1.75794 2.59296 2.98849C3.06174 4.07255 3.57447 5.6254 4.13115 7.64702C4.71713 9.66865 5.01012 10.7381 5.01012 10.8553C5.12732 10.533 5.36171 9.43426 5.71329 7.55913C6.06488 5.68399 6.46042 4.0286 6.8999 2.59296C7.39798 1.15731 7.91072 0.439484 8.4381 0.439484C8.73109 0.439484 8.98013 0.52738 9.18522 0.703173C9.41961 0.878966 9.53681 1.09871 9.53681 1.3624C9.53681 2.85665 9.12662 4.96617 8.30625 7.69097C7.42728 10.6502 6.9878 12.789 6.9878 14.1074V27.3359C6.9878 29.2989 6.50437 30.2805 5.5375 30.2805Z" fill="black"/>
<path d="M16.5586 30.2365C16.1778 30.2365 15.8262 30.1047 15.5039 29.841C15.2109 29.5773 15.0498 29.255 15.0205 28.8741V27.7314V26.8525C14.9912 26.5888 14.9765 26.2812 14.9765 25.9296C14.9765 25.3143 14.9326 24.3767 14.8447 23.1169L14.7568 20.3042C14.7568 18.8685 14.8007 16.7297 14.8886 13.8877C15.0058 11.3387 15.0644 9.19987 15.0644 7.47123C15.0644 7.06105 15.0205 6.44577 14.9326 5.6254C14.8447 4.77573 14.8007 4.16045 14.8007 3.77956C14.8007 1.69934 15.416 0.659226 16.6465 0.659226C17.6134 0.659226 18.7268 0.84967 19.9866 1.23056C21.2758 1.61144 21.9204 2.06558 21.9204 2.59296C21.9204 2.88595 21.7885 3.16429 21.5248 3.42798C21.2904 3.66237 20.9974 3.85281 20.6459 3.9993C19.4153 3.55982 18.3019 3.26683 17.3058 3.12034C17.3351 3.55982 17.3497 4.18975 17.3497 5.01012C17.3497 6.18208 17.3351 7.23684 17.3058 8.17441C17.2179 9.58076 17.1739 10.6355 17.1739 11.3387L17.3058 12.0419L18.0089 11.9979C18.2433 11.9686 18.5363 11.954 18.8879 11.954C20.2943 11.954 20.9974 12.3642 20.9974 13.1845C20.9974 13.5068 20.8656 13.7852 20.6019 14.0195C20.3382 14.2246 20.0013 14.3272 19.5911 14.3272C19.0637 14.3272 18.6535 14.2979 18.3605 14.2393H17.2618C17.3204 15.0011 17.3497 16.1144 17.3497 17.5794C17.3497 19.0443 17.3351 20.3628 17.3058 21.5347C17.2179 23.322 17.1739 24.6551 17.1739 25.534C17.1739 27.1748 17.2032 27.9951 17.2618 27.9951L18.7121 27.9512C19.2102 27.9219 19.8108 27.9072 20.514 27.9072C21.6274 27.9072 22.184 28.2588 22.184 28.962C22.184 29.3722 21.9936 29.6798 21.6127 29.8849C21.2611 30.1193 20.8216 30.2365 20.2943 30.2365H16.5586Z" fill="black"/>
<path d="M33.9513 30.3684C32.8965 30.0168 31.5927 29.841 30.0399 29.841C29.5711 30.134 29.073 30.2805 28.5456 30.2805C28.194 30.2805 27.8864 30.1193 27.6227 29.797C27.3883 29.504 27.2711 29.1817 27.2711 28.8302C27.2711 26.369 27.3737 23.0876 27.5788 18.9857C27.7546 14.6202 27.8425 11.3533 27.8425 9.18522V8.87758C27.6667 7.03175 27.5788 5.6547 27.5788 4.74643C27.5788 1.96303 28.0915 0.571328 29.117 0.571328C29.4099 0.571328 29.659 0.688524 29.8641 0.922916C30.0985 1.12801 30.2157 1.37705 30.2157 1.67004C30.2157 2.02163 30.1717 2.57831 30.0838 3.34008C29.9959 4.07255 29.952 4.62923 29.952 5.01012C29.952 6.97315 29.9666 8.74574 29.9959 10.3279C30.0252 11.8807 30.0399 13.6387 30.0399 15.6017C29.8934 16.0412 29.8201 16.6565 29.8201 17.4475V17.9749L29.7322 21.4468C29.6736 22.4723 29.6443 23.6442 29.6443 24.9627C29.6443 26.9843 30.1278 27.9951 31.0946 27.9951C31.1532 27.9951 31.2411 27.9951 31.3583 27.9951C31.5048 27.9658 31.6953 27.9512 31.9297 27.9512C32.1933 27.9219 32.5303 27.9072 32.9405 27.9072C34.5226 27.9072 35.3137 28.3467 35.3137 29.2257C35.3137 29.5187 35.1818 29.7677 34.9181 29.9728C34.6545 30.1779 34.3322 30.3098 33.9513 30.3684Z" fill="black"/>
<path d="M45.8679 30.3684C44.8131 30.0168 43.5093 29.841 41.9565 29.841C41.4877 30.134 40.9896 30.2805 40.4622 30.2805C40.1106 30.2805 39.803 30.1193 39.5393 29.797C39.3049 29.504 39.1877 29.1817 39.1877 28.8302C39.1877 26.369 39.2903 23.0876 39.4954 18.9857C39.6712 14.6202 39.759 11.3533 39.759 9.18522V8.87758C39.5833 7.03175 39.4954 5.6547 39.4954 4.74643C39.4954 1.96303 40.0081 0.571328 41.0336 0.571328C41.3265 0.571328 41.5756 0.688524 41.7807 0.922916C42.0151 1.12801 42.1323 1.37705 42.1323 1.67004C42.1323 2.02163 42.0883 2.57831 42.0004 3.34008C41.9125 4.07255 41.8686 4.62923 41.8686 5.01012C41.8686 6.97315 41.8832 8.74574 41.9125 10.3279C41.9418 11.8807 41.9565 13.6387 41.9565 15.6017C41.81 16.0412 41.7367 16.6565 41.7367 17.4475V17.9749L41.6488 21.4468C41.5902 22.4723 41.5609 23.6442 41.5609 24.9627C41.5609 26.9843 42.0444 27.9951 43.0112 27.9951C43.0698 27.9951 43.1577 27.9951 43.2749 27.9951C43.4214 27.9658 43.6119 27.9512 43.8463 27.9512C44.1099 27.9219 44.4469 27.9072 44.8571 27.9072C46.4392 27.9072 47.2303 28.3467 47.2303 29.2257C47.2303 29.5187 47.0984 29.7677 46.8347 29.9728C46.5711 30.1779 46.2488 30.3098 45.8679 30.3684Z" fill="black"/>
<path d="M56.1584 30.5002C55.3966 30.5002 54.6934 30.2512 54.0489 29.7531C53.4043 29.2843 52.8769 28.6397 52.4667 27.8193C51.617 26.0321 51.0897 24.0837 50.8846 21.9742C50.6209 19.9819 50.489 18.0628 50.489 16.217C50.489 15.8654 50.5037 15.5724 50.533 15.338V14.5469C50.533 14.4004 50.5183 14.3272 50.489 14.3272V13.5361L50.533 10.4597C50.5623 9.52216 50.6795 8.02791 50.8846 5.97698C51.0311 4.57064 51.368 3.20823 51.8954 1.88978C52.1005 1.3038 52.3642 0.864319 52.6865 0.571328C53.0087 0.249041 53.375 0.0878965 53.7852 0.0878965C54.9571 0.0878965 56.0119 0.307638 56.9494 0.747121C57.887 1.15731 58.6781 1.74329 59.3227 2.50506C59.9086 3.23753 60.4067 4.1458 60.8169 5.22986C61.2271 6.28462 61.5201 7.41263 61.6959 8.61389C61.8717 9.84445 61.9596 11.1482 61.9596 12.5253V12.8769C61.9596 13.7852 61.9742 14.6055 62.0035 15.338L62.0475 17.8431C62.0475 26.2812 60.0844 30.5002 56.1584 30.5002ZM55.9826 28.6544C56.51 28.6544 56.9934 28.4493 57.4329 28.0391C57.8724 27.5996 58.2093 27.0136 58.4437 26.2812C59.0004 24.7869 59.3373 23.1755 59.4545 21.4468C59.601 19.9526 59.6743 18.6634 59.6743 17.5794C59.6743 16.2609 59.5717 14.5323 59.3666 12.3935C59.1908 10.1374 59.1029 8.45274 59.1029 7.33939V6.54831C59.0443 5.43495 58.6634 4.46809 57.9603 3.64772C57.2864 2.82735 56.4514 2.41716 55.4552 2.41716C54.459 2.41716 53.7998 2.98849 53.4775 4.13115C53.1845 5.03942 53.038 6.21138 53.038 7.64702C53.038 8.2037 53.0527 8.67249 53.082 9.05337V10.24L52.9941 12.2616C52.9355 12.8769 52.9062 13.5508 52.9062 14.2832C52.9062 15.8654 52.9501 17.4329 53.038 18.9857C53.1552 21.1831 53.4482 23.322 53.917 25.4022C54.3858 27.5703 55.0743 28.6544 55.9826 28.6544Z" fill="black"/>
<path d="M70.2185 30.5881C69.6325 30.5881 69.1198 29.7091 68.6803 27.9512C68.2994 26.3983 67.9771 24.4793 67.7134 22.194C67.479 19.8793 67.23 16.9641 66.9663 13.4482C66.8198 11.1629 66.6147 8.71644 66.351 6.10883C66.1459 3.94071 65.8969 2.54901 65.6039 1.93373C65.8676 1.40635 66.2924 1.14266 66.8784 1.14266C67.816 1.14266 68.2848 2.10952 68.2848 4.04325C68.2848 6.32857 68.5924 9.66865 69.2077 14.0635C69.823 18.429 70.1745 21.608 70.2624 23.6003L70.4822 22.1061C70.7752 20.143 71.0242 18.2972 71.2293 16.5686C71.4637 14.8106 71.6541 12.9208 71.8006 10.8992C72.0057 8.64319 72.1083 6.41647 72.1083 4.21905L73.2949 3.69167C73.6758 3.69167 73.9834 3.79421 74.2178 3.9993C74.4815 4.1751 74.6133 4.43879 74.6133 4.79038V5.14196C75.0821 6.78271 75.463 8.58459 75.756 10.5476C76.0783 12.4813 76.3566 14.7667 76.591 17.4036C76.7668 19.4252 76.9719 21.315 77.2063 23.0729C77.763 19.1469 78.0413 14.3125 78.0413 8.56994C78.0413 7.66167 78.1585 6.54831 78.3929 5.22986C78.598 3.88211 78.7005 2.7834 78.7005 1.93373C78.6126 1.67004 78.5687 1.421 78.5687 1.18661C78.5687 0.483432 79.0082 0.131843 79.8871 0.131843C80.2387 0.131843 80.5171 0.219741 80.7222 0.395536C80.9273 0.571329 81.0298 0.820371 81.0298 1.14266V1.80189C81.0298 2.24137 80.9858 2.62226 80.8979 2.94454V3.16429C80.5171 4.33624 80.3266 5.684 80.3266 7.20754V10.4158C80.3266 12.2616 80.1069 15.0157 79.6674 18.6781C79.1986 22.2525 78.9642 24.9188 78.9642 26.6767V27.4678C78.9642 28.1416 78.891 28.713 78.7445 29.1817C78.5687 29.7677 78.1439 30.0607 77.47 30.0607C77.0012 30.0607 76.635 29.9142 76.3713 29.6212C76.1369 29.2989 76.0197 28.9034 76.0197 28.4346C76.0197 26.0614 75.7706 22.985 75.2726 19.2055C75.0089 17.5061 74.7305 15.7921 74.4375 14.0635L73.7344 9.44891C73.6172 10.2986 73.5586 11.1336 73.5586 11.954C73.5586 13.5947 73.4414 15.7628 73.207 18.4583C72.9726 21.1538 72.6064 23.7761 72.1083 26.3251C71.5516 29.1671 70.9217 30.5881 70.2185 30.5881Z" fill="black"/>
<path d="M101.882 30.4123C101.237 30.4123 100.651 29.7091 100.124 28.3028C99.5088 26.7792 99.0547 25.2117 98.7617 23.6003L98.4541 22.1061C97.6044 17.9163 97.0624 15.5284 96.828 14.9425H96.3006C96.3006 15.7921 96.2859 16.5686 96.2566 17.2717V19.6889C96.2566 23.6149 96.535 26.6767 97.0917 28.8741L96.6082 30.0607H95.3777L94.8064 29.4015L94.8503 26.4569C94.8503 23.82 94.7185 19.8207 94.4548 14.459C94.2204 8.74574 94.1032 4.74643 94.1032 2.46111C94.1032 1.05476 94.5866 0.351586 95.5535 0.351586C97.1356 0.351586 98.4248 0.76177 99.4209 1.58214C100.446 2.40251 100.959 3.54517 100.959 5.01012V8.08651C100.959 8.52599 100.886 9.03872 100.739 9.6247C100.593 10.1814 100.432 10.6355 100.256 10.9871L99.4209 12.5692L98.7178 13.8877L98.9375 14.9425L99.5528 18.0628C99.963 20.3188 100.359 22.15 100.739 23.5564C101.12 24.9627 101.589 26.2372 102.146 27.3799L102.409 27.9072C102.702 28.4932 102.849 28.962 102.849 29.3136C102.849 29.6066 102.761 29.8556 102.585 30.0607C102.409 30.2951 102.175 30.4123 101.882 30.4123ZM96.4764 12.789C97.121 12.4667 97.663 11.5877 98.1025 10.1521C98.5713 8.68714 98.8057 7.33939 98.8057 6.10883C98.8057 5.17126 98.6885 4.29229 98.4541 3.47192C98.3076 3.00314 98.0585 2.65155 97.7069 2.41716C97.3847 2.15347 96.9745 2.02163 96.4764 2.02163L96.3885 2.24137L96.3006 2.63691L96.3885 7.82282C96.4471 9.34636 96.4764 11.0018 96.4764 12.789Z" fill="black"/>
<path d="M115.967 30.0607C115.293 30.0607 114.795 29.9582 114.473 29.7531C114.151 29.548 113.99 29.1671 113.99 28.6104C113.99 27.7315 113.843 26.2372 113.55 24.1277L113.374 23.2048L109.023 22.5455C108.848 23.2194 108.599 24.5818 108.276 26.6327C108.1 28.0684 107.822 29.0206 107.441 29.4894C107.236 29.7531 106.943 29.8849 106.562 29.8849C106.211 29.8849 105.888 29.7824 105.595 29.5773C105.302 29.3429 105.156 29.0646 105.156 28.7423L105.244 28.5225L105.288 28.3467C107.221 20.8169 108.686 13.3896 109.683 6.06488C109.683 5.94769 109.697 5.75724 109.727 5.49355C109.756 5.20056 109.785 4.79038 109.814 4.263C109.902 3.17894 109.99 2.31462 110.078 1.67004C110.195 1.02546 110.371 0.54203 110.606 0.219743H112.1C112.51 0.219743 112.862 0.322288 113.155 0.52738C113.448 0.703175 113.594 0.966865 113.594 1.31845C113.594 3.54517 113.902 6.85595 114.517 11.2508C115.103 15.7628 115.396 18.9271 115.396 20.7437C115.396 20.9194 115.469 21.3736 115.616 22.1061C115.762 22.7799 115.835 23.2194 115.835 23.4245C115.835 23.6296 115.982 24.5086 116.275 26.0614C116.539 27.4678 116.67 28.376 116.67 28.7862V28.8302C116.67 29.4747 116.436 29.8849 115.967 30.0607ZM113.067 21.6226C112.979 21.1831 112.935 20.6411 112.935 19.9965C112.935 17.3596 112.7 13.9902 112.232 9.88839L111.792 5.31776C110.532 12.203 109.668 17.4036 109.199 20.9194C109.639 21.2124 110.928 21.4468 113.067 21.6226Z" fill="black"/>
<path d="M121.874 30.1047C121.229 30.1047 120.834 29.8263 120.687 29.2696C120.57 28.9181 120.511 28.42 120.511 27.7754C120.511 26.5155 120.57 24.9627 120.687 23.1169C120.834 21.3589 120.907 19.7914 120.907 18.4144C120.907 16.8615 120.951 14.5323 121.039 11.4266L121.127 4.48274C121.127 4.21905 121.083 3.82351 120.995 3.29613L120.863 2.19742V1.97768C120.863 1.3038 120.966 0.80572 121.171 0.483432C121.376 0.161144 121.757 0 122.313 0C123.075 0 123.91 0.219743 124.818 0.659226C125.727 1.09871 126.386 1.65539 126.796 2.32926C127.646 3.73562 128.071 5.49355 128.071 7.60308C128.071 9.18522 127.939 10.5183 127.675 11.6024C127.411 12.6571 126.957 13.6387 126.313 14.5469C127.104 15.3087 127.631 16.2902 127.895 17.4915C128.188 18.6634 128.334 20.143 128.334 21.9303C128.334 23.7175 128.027 25.2703 127.411 26.5888C126.708 28.083 125.683 29.1085 124.335 29.6652C123.515 29.9582 122.694 30.1047 121.874 30.1047ZM123.28 13.2724C124.804 13.2431 125.566 11.4705 125.566 7.95466C125.566 4.1751 124.965 2.19742 123.764 2.02163C123.441 2.6955 123.28 4.27765 123.28 6.76805V13.2724ZM123.017 27.8633C123.954 27.6582 124.687 27.1015 125.214 26.1933C125.741 25.285 126.005 24.2449 126.005 23.0729C126.005 21.8424 125.932 20.7583 125.785 19.8207C125.668 19.0883 125.507 18.4876 125.302 18.0189C125.126 17.5208 124.877 17.0666 124.555 16.6565C124.203 16.217 123.793 15.9533 123.324 15.8654C123.207 17.5354 123.148 19.7475 123.148 22.5016C123.148 22.6774 123.119 23.2341 123.06 24.1716L122.973 25.6659C122.973 25.7245 122.987 25.7684 123.017 25.7977V25.8856V27.8633Z" fill="black"/>
<path d="M134.563 30.1047C133.918 30.1047 133.523 29.8263 133.376 29.2696C133.259 28.9181 133.201 28.42 133.201 27.7754C133.201 26.5155 133.259 24.9627 133.376 23.1169C133.523 21.3589 133.596 19.7914 133.596 18.4144C133.596 16.8615 133.64 14.5323 133.728 11.4266L133.816 4.48274C133.816 4.21905 133.772 3.82351 133.684 3.29613L133.552 2.19742V1.97768C133.552 1.3038 133.655 0.80572 133.86 0.483432C134.065 0.161144 134.446 0 135.002 0C135.764 0 136.599 0.219743 137.508 0.659226C138.416 1.09871 139.075 1.65539 139.485 2.32926C140.335 3.73562 140.76 5.49355 140.76 7.60308C140.76 9.18522 140.628 10.5183 140.364 11.6024C140.101 12.6571 139.646 13.6387 139.002 14.5469C139.793 15.3087 140.32 16.2902 140.584 17.4915C140.877 18.6634 141.023 20.143 141.023 21.9303C141.023 23.7175 140.716 25.2703 140.1 26.5888C139.397 28.083 138.372 29.1085 137.024 29.6652C136.204 29.9582 135.383 30.1047 134.563 30.1047ZM135.969 13.2724C137.493 13.2431 138.255 11.4705 138.255 7.95466C138.255 4.1751 137.654 2.19742 136.453 2.02163C136.13 2.6955 135.969 4.27765 135.969 6.76805V13.2724ZM135.706 27.8633C136.643 27.6582 137.376 27.1015 137.903 26.1933C138.43 25.285 138.694 24.2449 138.694 23.0729C138.694 21.8424 138.621 20.7583 138.474 19.8207C138.357 19.0883 138.196 18.4876 137.991 18.0189C137.815 17.5208 137.566 17.0666 137.244 16.6565C136.892 16.217 136.482 15.9533 136.013 15.8654C135.896 17.5354 135.838 19.7475 135.838 22.5016C135.838 22.6774 135.808 23.2341 135.75 24.1716L135.662 25.6659C135.662 25.7245 135.676 25.7684 135.706 25.7977V25.8856V27.8633Z" fill="black"/>
<path d="M148.175 29.6212C145.626 29.6212 144.352 29.1818 144.352 28.3028C144.352 27.5996 144.806 27.248 145.714 27.248H146.197L146.637 27.292C146.871 27.292 147.032 27.2187 147.12 27.0722C147.208 26.9257 147.252 26.662 147.252 26.2812C147.252 25.7831 147.223 25.0067 147.164 23.9519C147.076 23.2487 146.974 21.9889 146.857 20.1723C146.593 15.6896 146.461 12.3056 146.461 10.0202C146.461 9.19987 146.476 8.45275 146.505 7.77887L146.549 5.5375C146.549 4.57064 146.505 3.76491 146.417 3.12034C145.948 3.23753 145.611 3.29613 145.406 3.29613C144.703 3.29613 144.352 2.94454 144.352 2.24137C144.352 1.88978 144.571 1.58214 145.011 1.31845C145.45 1.05476 146.007 0.864317 146.681 0.747121C147.853 0.512731 148.893 0.395536 149.801 0.395536C150.153 0.395536 150.446 0.527382 150.68 0.791073C150.944 1.02546 151.076 1.3038 151.076 1.62609C151.076 1.94838 150.973 2.22672 150.768 2.46111C150.592 2.6955 150.358 2.8127 150.065 2.8127C149.889 2.8127 149.743 2.79805 149.625 2.76875H149.274C148.981 2.76875 148.761 2.842 148.615 2.98849C148.497 3.10569 148.439 3.34008 148.439 3.69167C148.439 6.53366 148.615 10.8113 148.966 16.5246C149.025 17.5794 149.142 19.1322 149.318 21.1831C149.464 22.5309 149.537 23.9079 149.537 25.3143V26.9843C149.713 26.955 150.006 26.9404 150.416 26.9404C151.647 26.9404 152.262 27.4531 152.262 28.4786V28.7423L151.164 29.4894C151.134 29.4894 151.032 29.504 150.856 29.5333C150.709 29.5333 150.416 29.5333 149.977 29.5333C149.039 29.5919 148.439 29.6212 148.175 29.6212Z" fill="black"/>
<path d="M158.51 28.962L158.466 27.248C158.437 26.7499 158.422 26.1933 158.422 25.578L158.466 24.0837C158.378 23.7614 158.158 20.5532 157.807 14.459C157.455 8.36485 157.25 4.45344 157.191 2.7248C155.492 2.6662 154.408 2.49041 153.939 2.19742C153.617 1.96303 153.456 1.69934 153.456 1.40635C153.456 1.17196 153.602 0.966866 153.895 0.791073C154.218 0.585979 154.54 0.483432 154.862 0.483432C155.682 0.483432 156.679 0.54203 157.851 0.659226C158.964 0.805721 159.96 0.878967 160.839 0.878967H161.191H161.542C162.451 0.878967 162.905 1.23056 162.905 1.93373C162.905 2.28532 162.758 2.57831 162.465 2.8127C162.172 3.01779 161.835 3.12034 161.454 3.12034C161.191 3.12034 160.81 3.07639 160.312 2.98849L159.433 2.8127L159.389 3.03244L159.345 3.25218C159.345 5.85979 159.594 10.0202 160.092 15.7335C160.561 21.0952 160.795 25.2557 160.795 28.2149C160.795 28.5665 160.634 28.8741 160.312 29.1378C160.019 29.4015 159.682 29.5333 159.301 29.5333L158.51 28.962Z" fill="black"/>
<path d="M170.718 30.544C170.242 30.544 169.82 30.3426 169.454 29.9397C169.088 29.5368 168.905 29.079 168.905 28.5663C168.905 28.017 169.106 27.5225 169.509 27.0831C169.912 26.6436 170.388 26.4238 170.937 26.4238C171.45 26.4238 171.908 26.6436 172.311 27.0831C172.714 27.5225 172.915 27.9986 172.915 28.5114C172.915 29.0974 172.695 29.5735 172.256 29.9397C171.853 30.3426 171.34 30.544 170.718 30.544Z" fill="black"/>
</svg>
