<svg xmlns="http://www.w3.org/2000/svg" viewBox="0 0 562.89 61.18"><defs><style>.cls-1{fill:#2b2a29;}.cls-2{fill:#434242;}.cls-3{fill:#ffed00;}</style></defs><title>Ресурс 2</title><g id="Слой_2" data-name="Слой 2"><g id="Слой_1-2" data-name="Слой 1"><g id="_227791456" data-name=" 227791456"><path class="cls-1" d="M395.48,56.22s-.14-4.88-.48-14.6l.34-15.56c.08-4.14-.4-6.58-.2-8.39.62-5.78,2.24-1.67,2.15,4.68l-.2,15.87.46,14.63-.06,2.07c-.31,9.69-3.06,4.73-2,1.33Z"/><path class="cls-1" d="M341.34,56.81l6.71-37.1,1.14-4.54a.44.44,0,0,1,.59-.39l1.11.48s-.34,1.84-1,5.5L347.37,36c-.79,3.8-1.16,5.73-1.19,5.81l-.88,6-.28.53.09,0-.17.54a2.48,2.48,0,0,0,0,1l-1.33,6.63C343.29,59.71,340.34,64.75,341.34,56.81Z"/><path class="cls-1" d="M360.27,56.47l-8-37.16-1.31-4.53c-.05-.31-.25-.46-.62-.37l-1.1.51s.39,1.84,1.19,5.5l3,15.22c.91,3.8,1.39,5.73,1.39,5.84.74,4.11,2.27,14,3.88,17.57,1,2.22,2.41,3.15,1.5-2.58Z"/><path class="cls-1" d="M327.19,59.08l.06-1.73-.23-.28a7.9,7.9,0,0,0,.51-2.78l-.34-8.93L327.64,25l-.25-8.1a1.72,1.72,0,0,1,1.95-1.93,1.25,1.25,0,0,1,1.08.42,14.47,14.47,0,0,0,2,.26c2.78.31,4.19.88,4.28,1.7,0,.34-.43.77-1.28,1.28a21.4,21.4,0,0,0-5.5-1.28l-.34.4c.06.65.06,1.61.06,2.92l-.26,10.51c0,1.28.32,1.9,1,1.9l2.27-.11c1.73,0,2.6.4,2.63,1.22a2.18,2.18,0,0,1-.34,1.22,1.39,1.39,0,0,1-1.25.51,1.66,1.66,0,0,1-1.33-.51L330.08,35h-.28l-.34.34v.19c.08,1.17.11,3,.11,5.36l-.11,9.61c0,4.51.31,7,.93,7.49a3.44,3.44,0,0,0,2.19.51l2.52-.12c1.33,0,2,.29,2,.88,0,.82-1,1.22-2.94,1.22h-5.59C327.7,60.5,327.25,60,327.19,59.08Z"/><path class="cls-1" d="M314.6,29l-.14,4.28c0,2,.77,5.72,2.27,11.11q2.76,9.69,4.68,12.33a5,5,0,0,1,1.3,2.46c0,.88-.37,1.34-1.13,1.34-1.05,0-2.3-2-3.77-6a108.85,108.85,0,0,1-3.69-12.39,56.64,56.64,0,0,1-1.58-8.7l-.15-.26c-.14.34-.51,1.05-1.05,2.15s-.93,1.93-1.16,2.41a12.06,12.06,0,0,0-1,4.71l-.34,4.79v8.53l.45,3.8a.67.67,0,0,1-.34.6,1.84,1.84,0,0,1-1,.22,1.48,1.48,0,0,1-.94-.28,1.64,1.64,0,0,1-.31-1.13V46.5l.63-8.39.65-12.9V16a1.15,1.15,0,0,1,1.05-.77,1.44,1.44,0,0,1,1.07.4,1.24,1.24,0,0,1,.4.88,7,7,0,0,0-.59,3.29c0,1.47-.06,3.79-.15,6.94s-.14,5.53-.14,7.06c.43-.17,2.16-3.23,5.22-9.19s4.68-8.95,5-8.95c1.13,0,1.73.37,1.81,1.1a94.43,94.43,0,0,0-7.14,12.33Z"/><path class="cls-1" d="M301.71,28.7l.14,4.28c0,2-.77,5.72-2.27,11.11q-2.76,9.69-4.68,12.33a5,5,0,0,0-1.3,2.46c0,.88.37,1.34,1.13,1.34,1,0,2.3-2,3.77-6a108.85,108.85,0,0,0,3.69-12.39,58.42,58.42,0,0,0,1.59-8.7l.14-.26c.14.34.51,1,1.05,2.15s1,1.93,1.16,2.41c3.4,8,4,1.11-4.76-13.21-3.49-5.69-4.71-8.95-5-8.95-1.14,0-1.73.37-1.82,1.1a95,95,0,0,1,7.15,12.33Z"/><path class="cls-1" d="M382.35,57.69c0,1.7.48,2.55,1.48,2.55a8.33,8.33,0,0,0,5.35-1.64,5.76,5.76,0,0,0,2.13-4.85V50c0-6.24-3-9.89-4.85-11.31a9.05,9.05,0,0,0-2.21-.82c0-2.44.14-6.47.43-12.13a87.7,87.7,0,0,1,.71-9.5l-.49-1.11h-1l-.48.51c-.71,19.28-1.08,33.25-1.08,42Zm1.9-.9.26-16.16.14-.11a2.83,2.83,0,0,1,2.27,1.3,9.15,9.15,0,0,1,1.53,3.2A24.92,24.92,0,0,1,389.52,51a26.33,26.33,0,0,1-.11,3,9.05,9.05,0,0,1-.57,2.15A3.64,3.64,0,0,1,385,58.49c-.26,0-.46-.2-.6-.63a4.44,4.44,0,0,1-.2-1.1Z"/><path class="cls-1" d="M368.46,60c-2.12-.09-1.33-16.36-1.41-19.36l.34-15.56a76.07,76.07,0,0,0-.34-7.72c-.43-.14-6.75-.28-7.63-.19l-1.59.14a1.06,1.06,0,0,1-1.27-1.14c0-.19.2-.39.59-.56a2.74,2.74,0,0,1,1-.26c6.18,0,21.21.68,21.21,2a1.69,1.69,0,0,1-.14.52l-1.53.14c-.34-.26-7.26-.4-8.2-.4l-.31.2a16.34,16.34,0,0,1,.2,3.54l-.2,15.88.45,14.62L369.57,54c-.17,5.61,3.65,6.27-1.05,6.1Z"/><path class="cls-1" d="M327.62,10.41c.87.71,3.31-1.05,2.63.46C328.1,15.57,326.06,9.16,327.62,10.41Z"/><path class="cls-1" d="M334.05,9.53c1.05.43,3.2.31,2.15,1.56C332.46,15.57,332,8.68,334.05,9.53Z"/><path class="cls-1" d="M416.08,9.45c-1.44,3.12-2.4,2.49-5.13,2l-1.36-.25c-.68-.12-2.21-.65-2-2s2,.09,2,.34c-.11.94,1.5.94,2.41.94,3.29,0,2,.37,2.47-1.25.11-.37,2.32-1.44,1.56.23Z"/><path class="cls-1" d="M405.85,19.11s.14,4.82.48,14.46L406,49c-.08,4.11.4,6.52.2,8.34-.62,5.72-2.21,1.67-2.12-4.65L404.26,37l-.45-14.48.06-2C404.18,10.87,406.9,15.77,405.85,19.11Z"/><path class="cls-1" d="M418.32,19.34s-.14,4.82-.48,14.46l.34,15.42c.09,4.11-.39,6.52-.2,8.33.63,5.73,2.22,1.67,2.13-4.65l-.2-15.7.46-14.49-.06-2C420,11.09,417.28,16,418.32,19.34Z"/><path class="cls-1" d="M417.05,20l-4.51,14-4,15.11c-1.05,4-2.21,6.23-2.52,8.05-1,5.72,1.67,2.24,3.37-3.94l4.2-15.34,4.48-14,.51-2C421,12.42,417,16.45,417.05,20Z"/></g><g id="_227789056" data-name=" 227789056"><path class="cls-1" d="M452.08,28.24l-.14,4.31q0,3.06,2.38,11.23c1.93,6.54,3.58,10.68,4.91,12.44a5.22,5.22,0,0,1,1.36,2.49c0,.91-.4,1.36-1.19,1.36-1.08,0-2.41-2-3.94-6.06a106,106,0,0,1-3.86-12.53,58.72,58.72,0,0,1-1.67-8.82l-.17-.28c-.17.34-.54,1.08-1.11,2.18s-1,2-1.21,2.44a11.82,11.82,0,0,0-1,4.76l-.34,4.85v8.65l.48,3.85a.69.69,0,0,1-.34.6,1.78,1.78,0,0,1-1,.22,1.52,1.52,0,0,1-1-.28,1.5,1.5,0,0,1-.31-1.13V45.84l.65-8.5.68-13V15a1.22,1.22,0,0,1,1.11-.77,1.54,1.54,0,0,1,1.13.4,1.22,1.22,0,0,1,.43.91,6.64,6.64,0,0,0-.63,3.31q0,2.25-.14,7C447.07,29,447,31.39,447,33c.45-.17,2.27-3.26,5.44-9.3s4.91-9,5.22-9c1.19,0,1.81.37,1.87,1.13a96.6,96.6,0,0,0-7.46,12.47Z"/><path class="cls-1" d="M466.23,16.45c0-1.73.51-2.58,1.53-2.58a8.93,8.93,0,0,1,5.61,1.67,5.75,5.75,0,0,1,2.21,4.91v3.77c0,6.32-3.11,10-5.07,11.42a10.28,10.28,0,0,1-2.3.85c0,2.47.15,6.55.46,12.27a89.55,89.55,0,0,0,.73,9.61l-.51,1.14h-1l-.51-.54q-1.14-29.2-1.13-42.49Zm2,.93.26,16.33.14.12A3,3,0,0,0,471,32.49a9.19,9.19,0,0,0,1.59-3.26,24.12,24.12,0,0,0,1.1-6,20.87,20.87,0,0,0-.14-3.09A9.87,9.87,0,0,0,473,18c-.63-1.59-1.93-2.38-4-2.38-.26,0-.48.23-.63.62a3.62,3.62,0,0,0-.19,1.14Z"/><path class="cls-1" d="M497,32.83l.14,8q0,15.18-5,18.48a4.91,4.91,0,0,1-2.75.82q-8.18,0-8.17-24.83a89.6,89.6,0,0,1,1.36-16.64c.68-3.43,1.7-5.13,3.09-5.13a1.3,1.3,0,0,1,.91.37,3.78,3.78,0,0,0,1.16.59,12.34,12.34,0,0,0,2,.48c.85.15,1.47.26,1.81.34.94.17,1.81,1,2.69,2.61,2,3.2,2.92,8.05,2.92,14.57l-.14.34Zm-13.63,2.44.14,5.33a49.05,49.05,0,0,0,1.5,12.22,12.6,12.6,0,0,0,1.62,3.8,3,3,0,0,0,2.44,1.61,3.41,3.41,0,0,0,2.4-1,6.77,6.77,0,0,0,1.65-2.75c.4-1.19.74-2.38,1-3.6a33.43,33.43,0,0,0,.57-4.11q.28-3.62.28-6.46l-.79-15.93-.26-.54.14-.34a8,8,0,0,0-1.7-5.1,5.12,5.12,0,0,0-4.14-2.19h-2.92c-.39,0-.73,2-1,6s-.48,6.24-.56,6.66l-.34,6.32Z"/><path class="cls-1" d="M554.39,28.24l-.14,4.31q0,3.06,2.38,11.23c1.92,6.54,3.57,10.68,4.9,12.44a5.22,5.22,0,0,1,1.36,2.49c0,.91-.4,1.36-1.19,1.36-1.08,0-2.41-2-3.94-6.06a104.11,104.11,0,0,1-3.85-12.53,59.17,59.17,0,0,1-1.68-8.82l-.17-.28L551,34.56c-.57,1.14-1,2-1.22,2.44a11.82,11.82,0,0,0-1,4.76l-.34,4.85v8.65l.48,3.85a.67.67,0,0,1-.34.6,1.78,1.78,0,0,1-1,.22,1.12,1.12,0,0,1-1.28-1.41V45.84l.66-8.5.68-13V15a1.19,1.19,0,0,1,1.1-.77,1.58,1.58,0,0,1,1.14.4,1.25,1.25,0,0,1,.42.91,6.77,6.77,0,0,0-.62,3.31c0,1.5-.06,3.83-.15,7s-.14,5.59-.14,7.15c.46-.17,2.27-3.26,5.45-9.3s4.9-9,5.21-9c1.19,0,1.82.37,1.87,1.13a96.5,96.5,0,0,0-7.45,12.47Z"/><path class="cls-1" d="M501.83,56l7-37.53L510,13.87c.06-.31.26-.45.63-.4l1.16.48s-.34,1.85-1.05,5.56l-2.61,15.36c-.82,3.83-1.21,5.79-1.24,5.9l-.91,6-.31.57.08-.06-.17.54a2.61,2.61,0,0,0,0,1l-1.39,6.72c-.34,3.37-3.43,8.47-2.38.42Z"/><path class="cls-1" d="M521.59,55.65l-8.36-37.58-1.36-4.6a.46.46,0,0,0-.63-.37l-1.13.51s.43,1.85,1.25,5.56l3.17,15.39c1,3.83,1.45,5.81,1.45,5.9.79,4.17,2.35,14.2,4,17.77,1.05,2.24,2.52,3.18,1.56-2.61Z"/><path class="cls-1" d="M532.93,38.39c.17,0,.34,0,.54-.06a2.72,2.72,0,0,0,.65-.17.09.09,0,0,1,.06.17,1.94,1.94,0,0,1-1.25.17s0-.08,0-.08Z"/><path class="cls-1" d="M541.86,29.29c.37.88-1,1-2.1,1a1,1,0,0,1,.74.71c0,.42-.31.62-.68.71a3.92,3.92,0,0,1-1.59-.12,1.61,1.61,0,0,1,.79,1,.16.16,0,0,1-.11.2,5.5,5.5,0,0,1-3.23-.14,8.57,8.57,0,0,1-2.86,2.06,4,4,0,0,1,.39.23A3.61,3.61,0,0,1,534.52,37c.79,2.58.34,5.53.17,8.14-.2,2.86-.51,5.75-.88,8.59-.2,1.53-.4,3-.46,4.59a5.56,5.56,0,0,1-.51,2.75.21.21,0,0,1-.39-.09c-.09,0-.2-.08-.2-.2-.43-3.48-1.25-6.94-1.65-10.46a54.23,54.23,0,0,0-1.81-8.7c-.65-2.24-1.67-6.38,1.45-6.92v0s0-.06,0-.06l0,0a12.57,12.57,0,0,0-.82-1c-.76.22-3.34.25-3.49-.85-.05-.4.43-.6,1-.71-1.08-.12-2.44-.34-2.58-1.05-.09-.45.4-.6.93-.62-.93-.37-2-.91-2.12-1.62-.14-1,.88-.62,1.59-.23l-.09-.25v-.06c-.4-.68-.77-1.5-.4-1.84.8-.71,1.48,1.19,1.59,1.53s.23.62.34,1a.52.52,0,0,1,.54-.22c.62.08,1,1.19,1.3,2.09.15-.34.43-.51.88-.22.8.48,1.16,2.15,1.08,3a5.45,5.45,0,0,1,.62,1c.23,0,.48,0,.68,0h0a20.78,20.78,0,0,1-1-3.31c-.23-.46-.48-.88-.71-1.33-1-.32-3.37-1.51-3.32-2.67,0-.62.57-.74,1.14-.71-1.08-.68-2.5-1.76-2.27-2.52.11-.43.45-.48.82-.43-1.1-.93-2.89-2.49-2.46-3.4.22-.45.73-.34,1.24-.14-.93-1-2.49-2.38-2.09-3.23s1.33-.06,1.9.59v0a.09.09,0,0,1,.17-.06c1.21,2,1.81,4.54,2.69,6.75.76,1.9,1.9,3.71,2.63,5.64-.17-1.08-.31-2.13-.42-3.21-.06-.51-.09-1-.14-1.55a8,8,0,0,1-2-2.84c-.22-.76.12-.91.6-.68-.34-.77-.94-1.59-.6-2.41.17-.4.43-.37.66-.2-.29-.9-.51-2.12.2-2.69,0-.06.17,0,.22,0a3,3,0,0,1,.57,2c.11.31.2.65.28,1,.29-.71,1-1.56,1.65-.88s.17,1.79-.23,2.75c.34-.28.68-.39,1,0,.43.65-.14,1.76-.71,2.55.32-.14.6-.14.77.26.37.88-.85,2.07-1.64,2.61a50.59,50.59,0,0,0,1.3,8v.06c.26,0,.48,0,.71,0-.37-1.24.08-2.66.2-3.91.17-2.07.42-4.11.54-6.18,0-1.16.14-2.29.22-3.46a10.65,10.65,0,0,1-1.27-2c-.29-.56-.63-1.36-.14-1.9a.22.22,0,0,1,.22,0,1.15,1.15,0,0,1,.17.14c-.2-.43-.45-.85-.68-1.28s-.42-.71-.31-1.05c.2-.7.88-.22,1.36.17-.11-.36-.25-.73-.34-1.13s-.25-1,.09-1.25.82.23,1,.54a3.53,3.53,0,0,1,.31,1.05c.06-.51.14-1,.23-1.5a.16.16,0,0,1,.31,0,69.07,69.07,0,0,1-.31,7.45c.65-1.1,2.12-2.66,2.94-1.84.43.42-.11,1.3-.31,1.7-.31.57-.68,1.1-1.05,1.67-.08.12-.34.4-.34.51,0-.17,1.08-.48,1.48-.59a.18.18,0,0,1,.22.11c.34,1.11-.76,2.15-1.5,2.83a7.1,7.1,0,0,0-.71.63l0,0c.06,0,.12,0,.17,0,.34-.06.66-.2,1,0,.06,0,.06.08.06.14-.17,1-1.68,2-2.5,2.58-.06.54-.11,1.05-.17,1.59a28.4,28.4,0,0,0-.54,5.1h0A27.67,27.67,0,0,0,536,31.56a4,4,0,0,1,.57-3.09c.17-.23.39-.57.76-.51s.37.79.65,1c0,0,0-.06,0-.08.06-.23.14-.46.2-.71l.26-.77c.11-.34.34-1.22.79-1.36s.77.23.88.65c.45-1,1.33-2.27,2.21-2s.34,1.16-.2,1.82c.06.05.06.17,0,.19a27.34,27.34,0,0,0-2.86,2.41c1-.31,2.32-.53,2.63.23ZM525.3,30.76h0c-.59-.05-.62.12-.11.49a4.91,4.91,0,0,0,.71.22c.54.14,1.1.2,1.67.29-.2-.17-.4-.37-.59-.54a4.61,4.61,0,0,1-.4-.37A3.27,3.27,0,0,0,525.3,30.76ZM524.94,29h0c-.4-.14-1.05-.28-1.08.14,0,.2.88.57,1.08.68a7.72,7.72,0,0,0,.93.43A4.84,4.84,0,0,1,524.94,29Zm0-2.18h0c-.68-.29-.26.54-.12.9a4.48,4.48,0,0,0,.32.66c.28.28.56.59.85.9-.23-.93-.51-2.26-1.05-2.49Zm1.58,3.09h0c.43.48.85,1,1.31,1.41-.09-.25-.17-.53-.26-.79s-1-2.32-1-.65Zm1.59,2.38h0c-.4.08-1.59.23-1.61.37-.26.79,2.12.85,2.83.85C528.9,33,528.51,32.64,528.08,32.24Zm.2-.54h0v.08c.45.46.94.88,1.36,1.37a9.21,9.21,0,0,0-.2-.91,5.4,5.4,0,0,0-.28-.74C528.93,30.68,528.65,30.76,528.28,31.7Zm-4.56-14.6h0c-1.11-.17-.15.88,0,1.14.43.51.91,1,1.34,1.53a17.62,17.62,0,0,1-.49-1.93c-.25-.26-.65-.71-.88-.74Zm1.73,3.66h0s0,0-.06,0-.71-.43-.85-.4c-.85.17-.17,1.05.08,1.34.63.7,1.34,1.33,2,2C526.24,22.71,525.81,21.75,525.45,20.76ZM527,24.47h0c0-.08-.09-.2-.12-.28a.17.17,0,0,1-.17,0c-1.67-.74-.56.82,0,1.33a10.22,10.22,0,0,0,1.14.85C527.54,25.75,527.26,25.12,527,24.47Zm1.13,2.5h0a2.58,2.58,0,0,0-.94-.15c-.76.37-.11,1.11.23,1.42a10.27,10.27,0,0,0,2.07,1.39C529,28.75,528.54,27.87,528.11,27Zm3.12-2.13h0c.14-1.28-.51-.65-.91-.45-.17.08-.31-.17-.2-.29a4.85,4.85,0,0,0,1.08-1.61c.08-.17.37-1.25,0-1.31-.11,0-.74.71-.88.85s-.37,0-.31-.19c.23-.6.51-1.17.68-1.79.06-.23.31-.94.2-1.08-.34-.42-1.11.26-1.39.6a47.45,47.45,0,0,1,.62,6.23c0,.15,0,.26,0,.4.45-.37,1.05-.91,1.08-1.33Zm-2-2.66h0a21.33,21.33,0,0,1-.4-4.06,3.48,3.48,0,0,0-.45-1.67c-.52.68,0,2.24.28,2.89h0v.11s0,0,0,0h0l0,0a.13.13,0,0,1-.2,0h0l0,0c-.12-.14-.4-.68-.6-.42s-.06.54,0,.71c.11.7.63,1.24.8,1.95a.18.18,0,0,1-.29.17,0,0,0,0,1,0,0c-.08-.08-.42-.39-.51-.22s.09.37.12.48a4.2,4.2,0,0,0,.68,1.1c.28.37.62.74.9,1.14,0-.71-.11-1.45-.19-2.16Zm4.08-3.72h0c.05-1.1.08-2.24.17-3.34-.09-.34-.14-.68-.23-1s-.62-1.65-.85-1c-.14.37.14,1,.26,1.34l.34,1.05a.17.17,0,0,1,0,.14,0,0,0,0,1,0,0h0l0,0h0s0,0-.06,0h0s-.11,0-.14-.05A8,8,0,0,0,532,15c-.77-.39-.37.49-.23.74a12.84,12.84,0,0,1,1,1.93h0a.12.12,0,0,1-.08.17c-.06,0-.17,0-.2,0h0c-.71-.91-.6.09-.45.51a6.58,6.58,0,0,0,.68,1.25c.17.28.39.54.59.82.06-.65.09-1.3.11-2Zm1.58,7.6h0c.69-.94-.19-.48-.9-.48a.18.18,0,0,1-.12-.31,11.12,11.12,0,0,0,1.62-1.45c.23-.26.71-.74.74-1,.11-1-1-.43-1.48-.26a.18.18,0,0,1-.22-.25c.48-.85,1.13-1.65,1.58-2.52.09-.17.4-.71.34-.83-.25-.48-1.19.12-1.41.29A3.42,3.42,0,0,0,533.78,21c0,.09-.06.11-.11.11-.09,1.11-.17,2.19-.23,3.29s-.14,2.13-.26,3.18A11.09,11.09,0,0,0,534.88,26.06Zm-2.91,9h0c-.12,0-.66,0-1.08-.08-4.14.93-1.62,5.81-1,8.53a76.55,76.55,0,0,1,1.47,8.36c.31,2.58.88,5.16,1.19,7.77.11-1.39.09-2.78.28-4.17.12-.73.2-1.47.29-2.21a1.1,1.1,0,0,1-1-.11.08.08,0,0,1,.05-.14,2.43,2.43,0,0,0,.6,0,3.19,3.19,0,0,0,.37,0c.11-.83.19-1.65.31-2.47a1.18,1.18,0,0,1-1.11.28c-.08,0-.05-.11,0-.14a2.08,2.08,0,0,1,.54-.11,2,2,0,0,0,.57-.26h0c0-.42.08-.88.14-1.3-.14.06-.26.08-.37.14a1.09,1.09,0,0,1-.54.11c-.06,0-.08-.08-.06-.14a1.06,1.06,0,0,1,.51-.22,3.28,3.28,0,0,1,.51-.15c0-.19,0-.36.06-.56.06-.6.11-1.19.17-1.82a1.51,1.51,0,0,1-1.42.15s0-.12,0-.12a6.11,6.11,0,0,0,1.45-.28c.06-.63.11-1.25.17-1.9a1,1,0,0,1-1.13,0c-.06,0,0-.12,0-.12a3.14,3.14,0,0,0,1.14-.19c.05-.63.08-1.22.11-1.85a1.86,1.86,0,0,1-1.22.17c-.08,0-.08-.11,0-.17a1.3,1.3,0,0,1,.66-.17,4,4,0,0,0,.62-.11c0-.43,0-.85.06-1.28V40a2.05,2.05,0,0,1-1.53.11c-.06,0,0-.11,0-.14.26,0,.51,0,.77,0a6.85,6.85,0,0,0,.74-.14A8.46,8.46,0,0,0,534,37c-.06-.17-.14-.34-.2-.48-.57.31-1.36.65-1.84.2-.06-.06,0-.14.08-.14a3.42,3.42,0,0,0,1.68-.26A2.33,2.33,0,0,0,532,35.1Zm9.66-8.56h0a1.07,1.07,0,0,0,.14-.2c.34-.48.51-1.21-.31-.82a3.06,3.06,0,0,0-1.16,1.62A4.69,4.69,0,0,1,541.63,26.51Zm-5.7,5.9h0c.49.06,1,.17,1.45.23s1.44.28.91-.57c-.17-.29-.91-.54-1.28-.74l-.31.31Zm1.82-2.89h0c-.2-.54-.48-1.11-1-.85-.2.11-.45,1-.48,1.1a4.43,4.43,0,0,0-.2,1.62c.45-.48.91-1,1.33-1.45.11-.14.26-.28.37-.42v0ZM537.32,31h0c.34.06.71.23,1,.28s1.16.37,1.39.2.05-.71-.17-.85a2.83,2.83,0,0,0-1.11-.25c-.2,0-.14-.29,0-.31A8,8,0,0,1,539.9,30c.43,0,2.38-.2,1.08-.79a3.82,3.82,0,0,0-2.13.25L537.29,31Zm2.44-3.49h0c.06-.56-.17-1.07-.68-.79-.2.11-.51,1.19-.51,1.19-.11.37-.23.74-.37,1.14a11.48,11.48,0,0,1,1.53-1.51Z"/></g><g id="_227783328" data-name=" 227783328"><path class="cls-2" d="M238.89,19.06s.14,4.82.48,14.43L239,48.88c-.08,4.08.4,6.49.2,8.3-.62,5.7-2.21,1.68-2.12-4.65l.19-15.67-.45-14.46.06-2c.31-9.58,3-4.68,2-1.33Z"/><path class="cls-2" d="M251.34,19.28s-.15,4.82-.49,14.43l.34,15.39c.09,4.09-.39,6.5-.19,8.31.62,5.7,2.21,1.67,2.12-4.65l-.2-15.67.46-14.46-.06-2c-.31-9.58-3-4.68-2-1.33Z"/><path class="cls-2" d="M250,20s-1.5,4.65-4.51,13.92l-4,15.08c-1.05,4-2.22,6.21-2.53,8-1,5.73,1.68,2.24,3.38-3.91l4.19-15.3,4.48-14,.51-2C254,12.42,250,16.45,250,20Z"/><path class="cls-2" d="M68.93,56.05s-.15-4.82-.49-14.43l.34-15.39c.09-4.08-.39-6.49-.19-8.31.62-5.69,2.21-1.67,2.12,4.65l-.2,15.68L71,52.7l-.06,2c-.31,9.58-3,4.67-2,1.33Z"/><path class="cls-2" d="M70.09,27.11l.11,4.62c0,5.84-1.64,9.41-4.93,10.66a7.37,7.37,0,0,1-2.69.48c-5.33,0-8-4.76-8-14.34a31.27,31.27,0,0,1,1.34-9.61c.65-2,1.67-3,3-3a2,2,0,0,1,.88.2,4.36,4.36,0,0,0,1.13.34c.48.08,1.14.2,2,.28s1.44.14,1.78.2a4.2,4.2,0,0,1,2.64,1.5c1.9,1.84,2.86,4.65,2.86,8.39l-.11.2ZM56.71,28.5l.14,3.09a17.2,17.2,0,0,0,1.47,7.05,5.7,5.7,0,0,0,1.59,2.19,3.54,3.54,0,0,0,2.41.93,5.1,5.1,0,0,0,2.38-.56,4.41,4.41,0,0,0,1.62-1.59,13.5,13.5,0,0,0,1-2.07,11.37,11.37,0,0,0,.57-2.38,31.61,31.61,0,0,0,.28-3.72l-.76-9.21-.26-.31.14-.2a3.69,3.69,0,0,0-1.67-2.95,6.46,6.46,0,0,0-4-1.24H58.69c-.37,0-.71,1.16-1,3.45a37.32,37.32,0,0,1-.57,3.86l-.34,3.66Z"/><path class="cls-2" d="M84.86,31.76,85,27.14c0-5.84-1.64-9.41-4.93-10.66a7.42,7.42,0,0,0-2.7-.48c-5.32,0-8,4.76-8,14.34A31.64,31.64,0,0,0,70.65,40c.66,2,1.68,3,3,3a2,2,0,0,0,.88-.2,3.7,3.7,0,0,1,1.13-.34c.48-.09,1.13-.2,2-.29s1.45-.14,1.79-.2a4.2,4.2,0,0,0,2.64-1.5C84,38.56,85,35.75,85,32l-.11-.2ZM71.48,30.37l.14-3.09a17.25,17.25,0,0,1,1.47-7.06A5.67,5.67,0,0,1,74.68,18a3.5,3.5,0,0,1,2.41-.94,5,5,0,0,1,2.38.57,4.41,4.41,0,0,1,1.62,1.59,13.5,13.5,0,0,1,1,2.07,11.87,11.87,0,0,1,.57,2.38,31.46,31.46,0,0,1,.28,3.71l-.77,9.21-.25.31.14.2a3.68,3.68,0,0,1-1.67,3,6.48,6.48,0,0,1-4.06,1.25H73.46c-.37,0-.71-1.16-1-3.46A37.32,37.32,0,0,0,71.9,34l-.34-3.65Z"/><path class="cls-2" d="M104.13,33.66l.12,7.85c0,9.89-1.59,15.93-4.77,18.05a4.4,4.4,0,0,1-2.6.8q-7.74,0-7.74-24.27a90.17,90.17,0,0,1,1.3-16.24c.62-3.34,1.62-5,2.92-5a1.28,1.28,0,0,1,.85.34,3.4,3.4,0,0,0,1.08.6,14.7,14.7,0,0,0,1.9.48c.82.14,1.39.26,1.73.31q1.32.21,2.55,2.55c1.84,3.15,2.78,7.88,2.78,14.23l-.12.34ZM91.21,36l.14,5.21a49.13,49.13,0,0,0,1.42,11.94A12.27,12.27,0,0,0,94.3,56.9a2.81,2.81,0,0,0,2.32,1.56,3.18,3.18,0,0,0,2.3-1,7.15,7.15,0,0,0,1.56-2.7,33.14,33.14,0,0,0,1-3.51,27.55,27.55,0,0,0,.54-4c.17-2.35.25-4.45.25-6.32l-.73-15.59-.26-.51.14-.34a8.08,8.08,0,0,0-1.61-5,4.79,4.79,0,0,0-3.92-2.13H93.08c-.37,0-.68,2-1,5.87s-.45,6.1-.54,6.52L91.26,36Z"/><path class="cls-2" d="M119.1,59.48c-2.1-.09-1.3-16.16-1.42-19.13L118,25a71.75,71.75,0,0,0-.34-7.62c-.42-.14-6.66-.29-7.54-.2l-1.59.14a1,1,0,0,1-1.24-1.13c0-.2.2-.37.59-.54a2.74,2.74,0,0,1,1-.26c6.13,0,21,.66,21,2a1.64,1.64,0,0,1-.14.51l-1.53.14c-.34-.26-7.17-.4-8.08-.4l-.31.2a16.23,16.23,0,0,1,.2,3.52L119.78,37l.45,14.46,0,2c-.17,5.55,3.6,6.18-1.05,6Z"/><path class="cls-2" d="M146.62,42.13l.12-7.85c0-9.89-1.59-15.93-4.77-18.06a4.39,4.39,0,0,0-2.6-.79q-7.74,0-7.74,24.26a90.28,90.28,0,0,0,1.3,16.25c.63,3.34,1.62,5,2.92,5a1.23,1.23,0,0,0,.85-.34,3.74,3.74,0,0,1,1.08-.59,14.7,14.7,0,0,1,1.9-.48l1.73-.32q1.32-.21,2.55-2.55c1.84-3.14,2.78-7.88,2.78-14.23l-.12-.34ZM133.7,39.75l.14-5.22a49.11,49.11,0,0,1,1.42-11.93,12.06,12.06,0,0,1,1.53-3.71,2.81,2.81,0,0,1,2.32-1.56,3.18,3.18,0,0,1,2.3,1A7.1,7.1,0,0,1,143,21a31.65,31.65,0,0,1,1,3.52,26.08,26.08,0,0,1,.54,4c.17,2.35.25,4.45.25,6.32L144,50.44l-.26.51.14.34a8,8,0,0,1-1.61,5,4.8,4.8,0,0,1-3.91,2.12h-2.78c-.37,0-.68-1.95-1-5.87s-.45-6.09-.53-6.52l-.32-6.17Z"/><path class="cls-2" d="M154.76,31.7l-.28,13.58c0,3.8.36,6.49,1.07,8.16a6.64,6.64,0,0,0,3.18,3.74,6.12,6.12,0,0,0,2.55.54,3,3,0,0,0,2-.59c.68,0,1,.22,1,.71,0,.34-.31.73-.9,1.16a8.24,8.24,0,0,1-1.68.93h-2.24a7.52,7.52,0,0,0-1.58-.59,7.64,7.64,0,0,1-2.13-1.08,6.66,6.66,0,0,1-1.81-2.32,12.85,12.85,0,0,1-1.22-3.8,48,48,0,0,1-.6-8V36.49a77.66,77.66,0,0,1,.65-12.3q1.32-6.72,3.58-8.51a7.46,7.46,0,0,1,1.81-.93,14.57,14.57,0,0,0,1.7-.74h2.69a.32.32,0,0,1,.17,0c.09,0,.15,0,.17.06a.48.48,0,0,1,.17.05c.09,0,.15,0,.17.06a.51.51,0,0,1,.15.06.87.87,0,0,1,.14.08.94.94,0,0,1,.28.71l-.88,1h-2.83a3,3,0,0,0-2.41,1.31,9.5,9.5,0,0,0-1.56,3.06,27.42,27.42,0,0,0-.88,4.11,52.14,52.14,0,0,0-.48,6.8l-.14.37Z"/><path class="cls-2" d="M179.42,59.79c-2.13-.08-1.33-16.44-1.45-19.5l.34-15.68a74.08,74.08,0,0,0-.34-7.76c-.42-.15-6.8-.29-7.68-.2l-1.61.14a1.06,1.06,0,0,1-1.28-1.16c0-.2.2-.4.6-.57a2.6,2.6,0,0,1,1-.25c6.23,0,21.34.68,21.34,2a1.11,1.11,0,0,1-.17.51l-1.53.14c-.34-.26-7.28-.4-8.25-.4l-.31.2a16.71,16.71,0,0,1,.2,3.57l-.2,16,.46,14.71-.06,2.07c-.17,5.64,3.68,6.29-1.05,6.15Z"/><path class="cls-2" d="M270.44,17.81c0-1.67-.48-2.49-1.44-2.49a8.35,8.35,0,0,0-5.28,1.61,5.65,5.65,0,0,0-2.07,4.76v4.79c0,1.68.85,4.11,2.55,7.26a16.35,16.35,0,0,1,.88,1.7c0,.09-.82,3.57-2.49,10.4S260.07,56.19,260,56.42s-.28.65-.62,1.33a4.13,4.13,0,0,0-.51,1.76.65.65,0,0,0,.73.73l1-.34q1.53-1.74,3.37-12.84c1.16-7.14,2.18-10.71,3-10.71h.25c1,0,1.45.31,1.45.93,0,2.41-.15,6.38-.43,11.94a84.45,84.45,0,0,1-.71,9.35l.48,1.11h1l.48-.51q1.06-28.45,1.05-41.36Zm-1.87.91-.26,15.9-.14.11a2.8,2.8,0,0,1-2.24-1.3,8.93,8.93,0,0,1-1.5-3.18,23.64,23.64,0,0,1-1.05-5.84,25.27,25.27,0,0,1,.12-3,10.69,10.69,0,0,1,.53-2.13q.86-2.3,3.75-2.29c.25,0,.45.2.56.62a4,4,0,0,1,.2,1.11Z"/><path class="cls-2" d="M197.36,56.45l6.81-37.59,1.13-4.59a.46.46,0,0,1,.6-.4l1.1.48s-.34,1.84-1,5.56L203.43,35.3c-.79,3.83-1.19,5.81-1.22,5.9l-.88,6-.31.57.09-.06-.17.54a2.61,2.61,0,0,0,0,1l-1.36,6.72c-.34,3.37-3.34,8.48-2.32.42Z"/><path class="cls-2" d="M201.11,40.69c-.15-4.51-3.46-11.63-3.86-16.81-.06-.91-5.33-19-3-4.31a29.76,29.76,0,0,0,1.41,5.89c.77,4.17,2.7,13.27,4.31,16.84,1,2.24,1.33,4.23,1.14-1.64Z"/><path class="cls-2" d="M211.76,47.06,216.84,19l.85-3.43a.33.33,0,0,1,.45-.28l.82.37-.76,4.16-1.9,11.51c-.6,2.86-.88,4.34-.91,4.4l-.65,4.5-.23.43.06-.06-.11.4a1.74,1.74,0,0,0,0,.76l-1,5c-.25,2.52-2.49,6.32-1.73.31Z"/><path class="cls-2" d="M226.08,46.81,220,18.69l-1-3.43a.34.34,0,0,0-.45-.28l-.83.39s.31,1.39.91,4.17L221,31.05c.7,2.86,1,4.33,1,4.39.57,3.12,1.71,10.6,2.92,13.3.77,1.67,1.85,2.38,1.14-2Z"/><path class="cls-2" d="M230.76,50.44l-21.63.2-2.7-.2c-.17,0-.28-.12-.28-.4l.14-.88s1.08,0,3.21,0l8.84-.25,3.4.08,3.46-.17.34.14,0,0,.31,0a.86.86,0,0,0,.57-.17l3.88.06c1.9-.23,5.08,1.28.49,1.65Z"/><path class="cls-2" d="M210.18,58.66l-4-8.53h1.67c.37.87.57,1.33.6,1.36l1.39,2.63,0,.29,0,0,0,.25a1.17,1.17,0,0,0,.37.43l1.31,3c.87,1.45.56,4.11-1.39.63Z"/><path class="cls-2" d="M228.88,58.23l4.17-8.53h-1.73c-.39.88-.59,1.33-.62,1.36l-1.45,2.64,0,.28,0,0-.08.26a1.37,1.37,0,0,1-.37.42l-1.36,3c-.94,1.44-.6,4.11,1.44.62Z"/></g><path class="cls-3" d="M3.73,48.31l-2.33-1c-1.84,2.38,0,3.63-1.13,4.7-.76.71.26,2.64,1.05,3.66,1.1,1.47,3.49,4.28,5.44,4.93.82-.11,20.67.23,23.47.11L28.7,56.5c.77-.39,2-.25,2.89-.65,4.4-2,2.72-.93,6,1,7.82,4.71,4,4.05,13.52,4,0-2-4.73-5.22-6.4-7a2,2,0,0,1,.28-3.2c1.42-.88,4.14.14,4.37-5,.11-2.63.73-2.38,1-3.82s.45-3.26-.23-4.28c-.31-.48-.82-.91-.74-1.62.2-1.73,2.84-1.33,5.08-2,1.64-.46,1.81-1,2.69-2.1,1.27-1.67,2.38-2.81,1.05-4.82-.43-.62-.74-.62-1.25-1.16-.65-.74-.85-2.1-1.59-3.06C53.93,20.81,53,18.35,51,17.67l-3.83-.94s-.05-.11-.08-.08-.2,0-.29-1.19c0-.54-.08-1.05-.08-1.62-.09-2.52-1.31-5.81-2.24-8.08-.45-1.07-1.73-4.11-2.44-4.45-4.31-2.1-1.5,9.67-1.27,11.88-1.17-.26-3.12-10.26-4.68-11.82C35.22.46,32.64-.79,31.57.66c-.57.74-.4,4.73-.4,6,0,2.41,0,3.46,1,5.36,2.66,5,4.11,3.37,3.74,9-.48,7-.2,2.92-3.49,6.09-.68.66-1,.94-1.36,1-.71.05-1.27-1.19-5.27-2C18.5,24.7,7.84,30,5.09,36.89c-1.53,3.82-.88,10.26-1.3,11.48Z"/></g></g></svg>